<svg width="25" height="23" viewBox="0 0 25 23" fill="none" xmlns="http://www.w3.org/2000/svg">
<path d="M6.95925 7.48591L4.25684 10.3149L11.6916 18.0979L25.0002 4.16591L22.2988 1.33691L11.6916 12.4389L6.95925 7.48591Z" fill="#4D4D4D"/>
<path d="M20.0604 20C20.0604 20.542 19.6229 21 19.1051 21H2.86577C2.34802 21 1.91051 20.542 1.91051 20V3C1.91051 2.458 2.34802 2 2.86577 2H19.0172L20.5313 0.415C20.0996 0.146542 19.6073 0.00329969 19.1051 0H2.86577C1.2896 0 0 1.35 0 3V20C0 21.65 1.2896 23 2.86577 23H19.1051C20.6813 23 21.9709 21.65 21.9709 20V10.171L20.0604 12.171V20Z" fill="#4D4D4D"/>
</svg>
